<?xml version="1.0" standalone="no"?><!DOCTYPE svg PUBLIC "-//W3C//DTD SVG 1.1//EN" "http://www.w3.org/Graphics/SVG/1.1/DTD/svg11.dtd"><svg class="icon" width="200px" height="200.00px" viewBox="0 0 1024 1024" version="1.1" xmlns="http://www.w3.org/2000/svg"><path d="M170.048 214.72a37.12 37.12 0 0 1 52.352-3.648l285.952 248.576a37.12 37.12 0 0 1-48.704 56L214.08 302.208a12.8 12.8 0 0 0-18.048 1.28l-1.088 1.344a389.312 389.312 0 0 0-10.24 16.192 379.008 379.008 0 0 0 68.16 467.392l10.56 9.536A378.88 378.88 0 1 0 582.4 139.648l-20.864-3.264a12.8 12.8 0 0 0-14.144 11.264v20.288a37.12 37.12 0 0 1-30.912 36.8l-6.016 0.512a37.12 37.12 0 0 1-37.312-36.928l-0.384-72.128A37.12 37.12 0 0 1 509.632 58.88a453.12 453.12 0 1 1-339.584 155.84z" fill="#000000" /></svg>