<?xml version="1.0" standalone="no"?><!DOCTYPE svg PUBLIC "-//W3C//DTD SVG 1.1//EN" "http://www.w3.org/Graphics/SVG/1.1/DTD/svg11.dtd"><svg class="icon" width="200px" height="200.00px" viewBox="0 0 1024 1024" version="1.1" xmlns="http://www.w3.org/2000/svg"><path d="M367.488 256.128c20.672 0 37.44 16.768 37.44 37.44l-0.064 57.216h17.664a51.2 51.2 0 0 1 51.2 51.2v110.08a51.2 51.2 0 0 1-51.2 51.2h-17.664v167.424a37.44 37.44 0 1 1-74.88 0V563.2h-17.536a51.2 51.2 0 0 1-51.2-51.2v-110.08a51.2 51.2 0 0 1 51.2-51.2h17.536v-57.216c0-20.672 16.832-37.44 37.504-37.44z m42.176 158.72H325.12V499.2h84.48V414.72zM656.768 768.128a37.44 37.44 0 0 0 37.44-37.44v-57.216l17.6-0.064a51.2 51.2 0 0 0 51.2-51.2v-110.08a51.2 51.2 0 0 0-51.2-51.2h-17.664V293.632a37.44 37.44 0 1 0-74.88 0v167.424l-17.536-0.064a51.2 51.2 0 0 0-51.2 51.2v110.08a51.2 51.2 0 0 0 51.2 51.2h17.6v57.28c0 20.672 16.768 37.44 37.44 37.44z m42.176-158.72H614.4v-84.48h84.48v84.48z" fill="#000000" /><path d="M195.008 176.64l634.176-1.088a19.2 19.2 0 0 1 19.2 19.2l0.064 634.88a19.2 19.2 0 0 1-19.2 19.2h-634.24a19.2 19.2 0 0 1-19.2-19.2V195.776a19.2 19.2 0 0 1 19.2-19.2z m653.696-75.52H175.552A74.56 74.56 0 0 0 101.12 175.552v673.152c0 40.96 33.408 74.432 74.432 74.432h673.152c41.088 0 74.368-33.344 74.432-74.432V175.552c0-41.088-33.344-74.368-74.432-74.432z" fill="#000000" /></svg>