<?xml version="1.0" standalone="no"?><!DOCTYPE svg PUBLIC "-//W3C//DTD SVG 1.1//EN" "http://www.w3.org/Graphics/SVG/1.1/DTD/svg11.dtd"><svg class="icon" width="200px" height="200.00px" viewBox="0 0 1024 1024" version="1.1" xmlns="http://www.w3.org/2000/svg"><path d="M487.68 231.68a357.248 357.248 0 0 1 339.2 245.312 37.12 37.12 0 1 1-70.4 23.232A283.008 283.008 0 0 0 204.8 588.8v334.08c0 7.04 5.76 12.8 12.8 12.8h286.08a37.12 37.12 0 0 1 36.608 31.104l0.512 6.016c0 20.48-16.64 37.12-37.12 37.12H168.96a38.4 38.4 0 0 1-38.4-38.4V588.8a357.12 357.12 0 0 1 357.12-357.12z" fill="#000000" /><path d="M936.32 635.2a37.12 37.12 0 1 1 0 74.24h-256a37.12 37.12 0 1 1 0-74.24h256zM936.32 783.68a37.12 37.12 0 1 1 0 74.24h-256a37.12 37.12 0 1 1 0-74.24h256zM936.32 932.16a37.12 37.12 0 1 1 0 74.24h-256a37.12 37.12 0 1 1 0-74.24h256zM870.4 192.64a37.12 37.12 0 1 1 52.48 52.48l-63.36 63.36a37.12 37.12 0 0 1-52.48-52.48l63.36-63.36zM91.52 192.64a37.12 37.12 0 1 0-52.48 52.48l63.36 63.36A37.12 37.12 0 1 0 154.88 256l-63.36-63.36zM518.08 37.12a37.12 37.12 0 1 0-74.24 0v89.6a37.12 37.12 0 0 0 74.24 0V37.12z" fill="#000000" /></svg>