<?xml version="1.0" standalone="no"?><!DOCTYPE svg PUBLIC "-//W3C//DTD SVG 1.1//EN" "http://www.w3.org/Graphics/SVG/1.1/DTD/svg11.dtd"><svg class="icon" width="200px" height="200.00px" viewBox="0 0 1024 1024" version="1.1" xmlns="http://www.w3.org/2000/svg"><path d="M357.44 480m0 37.44l0 181.12q0 37.44-37.44 37.44l0 0q-37.44 0-37.44-37.44l0-181.12q0-37.44 37.44-37.44l0 0q37.44 0 37.44 37.44Z" fill="#000000" /><path d="M549.44 288m0 37.44l0 373.12q0 37.44-37.44 37.44l0 0q-37.44 0-37.44-37.44l0-373.12q0-37.44 37.44-37.44l0 0q37.44 0 37.44 37.44Z" fill="#000000" /><path d="M741.44 416m0 37.44l0 245.12q0 37.44-37.44 37.44l0 0q-37.44 0-37.44-37.44l0-245.12q0-37.44 37.44-37.44l0 0q37.44 0 37.44 37.44Z" fill="#000000" /><path d="M194.88 176.448l634.176-0.96a19.2 19.2 0 0 1 19.2 19.2l0.064 634.88a19.2 19.2 0 0 1-19.2 19.2h-634.24a19.2 19.2 0 0 1-19.2-19.2V195.584a19.2 19.2 0 0 1 19.2-19.2zM848.64 100.992H175.36a74.56 74.56 0 0 0-74.432 74.432V848.64c0 40.96 33.408 74.432 74.432 74.432H848.64c41.088 0 74.368-33.344 74.432-74.432V175.36c0-41.088-33.344-74.368-74.432-74.432z" fill="#000000" /></svg>