<?xml version="1.0" standalone="no"?><!DOCTYPE svg PUBLIC "-//W3C//DTD SVG 1.1//EN" "http://www.w3.org/Graphics/SVG/1.1/DTD/svg11.dtd"><svg class="icon" width="200px" height="200.00px" viewBox="0 0 1024 1024" version="1.1" xmlns="http://www.w3.org/2000/svg"><path d="M384 96A96 96 0 0 1 480 192v192A96 96 0 0 1 384 480H192A96 96 0 0 1 96 384V192A96 96 0 0 1 192 96h192z m-7.68 74.24H199.68a29.44 29.44 0 0 0-29.44 29.44v176.64c0 16.256 13.184 29.44 29.44 29.44h176.64a29.44 29.44 0 0 0 29.44-29.44V199.68a29.44 29.44 0 0 0-29.44-29.44zM922.944 225.664a87.68 87.68 0 0 1 0 124.032L798.976 473.6a87.68 87.68 0 0 1-124.032 0L551.04 349.696a87.68 87.68 0 0 1 0-124.032l123.968-123.968a87.68 87.68 0 0 1 124.032 0l123.968 123.968z m-60.8 44.16L754.752 162.56a25.28 25.28 0 0 0-35.712 0L611.84 269.824a25.28 25.28 0 0 0 0 35.712l107.264 107.264a25.28 25.28 0 0 0 35.712 0l107.264-107.264a25.28 25.28 0 0 0 0-35.712zM384 544A96 96 0 0 1 480 640v192A96 96 0 0 1 384 928H192A96 96 0 0 1 96 832v-192A96 96 0 0 1 192 544h192z m-7.68 74.24H199.68a29.44 29.44 0 0 0-29.44 29.44v176.64c0 16.256 13.184 29.44 29.44 29.44h176.64a29.44 29.44 0 0 0 29.44-29.44v-176.64a29.44 29.44 0 0 0-29.44-29.44zM832 544a96 96 0 0 1 96 96v192a96 96 0 0 1-96 96h-192A96 96 0 0 1 544 832v-192A96 96 0 0 1 640 544h192z m-7.68 74.24h-176.64a29.44 29.44 0 0 0-29.44 29.44v176.64c0 16.256 13.184 29.44 29.44 29.44h176.64a29.44 29.44 0 0 0 29.44-29.44v-176.64a29.44 29.44 0 0 0-29.44-29.44z" fill="#000000" /></svg>