<?xml version="1.0" standalone="no"?><!DOCTYPE svg PUBLIC "-//W3C//DTD SVG 1.1//EN" "http://www.w3.org/Graphics/SVG/1.1/DTD/svg11.dtd"><svg class="icon" width="200px" height="200.00px" viewBox="0 0 1024 1024" version="1.1" xmlns="http://www.w3.org/2000/svg"><path d="M512.064 512.704m-64 0a64 64 0 1 0 128 0 64 64 0 1 0-128 0Z" fill="#000000" /><path d="M127.616 127.616C227.584 27.648 480.896 118.784 693.312 331.264c212.48 212.48 303.616 465.728 203.648 565.696-99.968 99.968-353.28 8.768-565.76-203.648C118.848 480.832 27.712 227.584 127.68 127.552z m52.48 52.48c-60.16 60.16 16.64 273.728 203.648 460.672 186.944 187.008 400.512 263.872 460.672 203.648 60.16-60.16-16.64-273.728-203.648-460.672C453.888 196.8 240.32 119.936 180.096 180.096z" fill="#000000" /><path d="M331.264 331.264C543.744 118.784 796.992 27.648 896.96 127.616c99.968 99.968 8.768 353.28-203.648 565.696-212.48 212.48-465.728 303.616-565.76 203.648-99.904-99.968-8.768-353.28 203.712-565.76z m52.48 52.48C196.8 570.688 119.936 784.256 180.096 844.416c60.16 60.16 273.728-16.64 460.672-203.648 187.008-186.88 263.872-400.448 203.648-460.672-60.16-60.16-273.728 16.64-460.672 203.648z" fill="#000000" /></svg>