<?xml version="1.0" standalone="no"?><!DOCTYPE svg PUBLIC "-//W3C//DTD SVG 1.1//EN" "http://www.w3.org/Graphics/SVG/1.1/DTD/svg11.dtd"><svg class="icon" width="200px" height="200.00px" viewBox="0 0 1024 1024" version="1.1" xmlns="http://www.w3.org/2000/svg"><path d="M407.04 102.4c41.728 0 75.52 33.792 75.52 75.52v669.44a75.52 75.52 0 0 1-75.52 75.52h-230.4a75.52 75.52 0 0 1-75.52-75.52V177.92c0-41.728 33.792-75.52 75.52-75.52h230.4z m-17.92 74.24H194.56a19.2 19.2 0 0 0-19.2 19.2v633.6a19.2 19.2 0 0 0 19.2 19.2h194.56a19.2 19.2 0 0 0 19.2-19.2v-633.6a19.2 19.2 0 0 0-19.2-19.2zM846.08 102.4c41.728 0 75.52 33.792 75.52 75.52v230.4a75.52 75.52 0 0 1-75.52 75.52h-230.4a75.52 75.52 0 0 1-75.52-75.52v-230.4c0-41.728 33.792-75.52 75.52-75.52h230.4zM614.4 195.84V390.4a19.2 19.2 0 0 0 19.2 19.2h194.56a19.2 19.2 0 0 0 19.2-19.2V195.84a19.2 19.2 0 0 0-19.2-19.2H633.6a19.2 19.2 0 0 0-19.2 19.2zM846.08 542.08c41.728 0 75.52 33.792 75.52 75.52v230.4a75.52 75.52 0 0 1-75.52 75.52h-230.4a75.52 75.52 0 0 1-75.52-75.52v-230.4c0-41.728 33.792-75.52 75.52-75.52h230.4zM614.4 635.52v194.56a19.2 19.2 0 0 0 19.2 19.2h194.56a19.2 19.2 0 0 0 19.2-19.2V635.52a19.2 19.2 0 0 0-19.2-19.2H633.6a19.2 19.2 0 0 0-19.2 19.2z" fill="#000000" /></svg>