<?xml version="1.0" standalone="no"?><!DOCTYPE svg PUBLIC "-//W3C//DTD SVG 1.1//EN" "http://www.w3.org/Graphics/SVG/1.1/DTD/svg11.dtd"><svg class="icon" width="200px" height="200.00px" viewBox="0 0 1024 1024" version="1.1" xmlns="http://www.w3.org/2000/svg"><path d="M822.784 630.592V493.12a30.4 30.4 0 0 0-30.72-30.72h-252.8V393.664h221.312c17.152 0 30.656-13.44 30.656-30.72V112.64a30.4 30.4 0 0 0-30.72-30.656H255.36a30.4 30.4 0 0 0-30.72 30.72v250.368c0 17.152 13.568 30.72 30.72 30.72h223.744v68.672H232.384a30.4 30.4 0 0 0-30.656 30.72v137.472H101.056a30.4 30.4 0 0 0-30.656 30.72v250.304c0 17.216 13.504 30.72 30.72 30.72h314.368c17.152 0 30.72-13.504 30.72-30.72v-250.368a30.4 30.4 0 0 0-30.72-30.72H263.04V523.84h497.088v106.816h-152.32a30.4 30.4 0 0 0-30.72 30.72v250.304c0 17.216 13.44 30.72 30.72 30.72h315.52c17.28 0 30.72-13.504 30.72-30.72v-250.368a30.4 30.4 0 0 0-30.72-30.72h-100.608z m-91.712-487.296v188.992H286.08V143.36h444.992zM131.84 880.96V691.84h252.992v189.056H131.84z m507.968 0V691.84h252.992v189.056H639.744z" fill="#000000" /></svg>