<?xml version="1.0" standalone="no"?><!DOCTYPE svg PUBLIC "-//W3C//DTD SVG 1.1//EN" "http://www.w3.org/Graphics/SVG/1.1/DTD/svg11.dtd"><svg class="icon" width="200px" height="200.00px" viewBox="0 0 1024 1024" version="1.1" xmlns="http://www.w3.org/2000/svg"><path d="M946.112 445.888l-5.248 4.352-382.976 289.792a75.52 75.52 0 0 1-91.136 0L83.712 450.24a75.52 75.52 0 0 1-0.256-120.192L466.432 37.248a75.52 75.52 0 0 1 91.712 0l383.04 292.8a75.52 75.52 0 0 1 4.928 115.84z m-63.36-66.304L523.904 105.216a19.2 19.2 0 0 0-23.296 0L141.824 379.52a12.8 12.8 0 0 0-2.368 17.92l2.432 2.496 358.784 272a19.2 19.2 0 0 0 23.168 0l358.848-272a12.8 12.8 0 0 0 0.064-20.416z" fill="#000000" /><path d="M131.392 540.544l59.84 45.248-50.048 40.512a12.8 12.8 0 0 0-1.92 17.984l1.088 1.152 360.32 273.088a19.2 19.2 0 0 0 23.168 0l358.592-271.552a12.8 12.8 0 0 0-0.128-20.544l-52.096-38.272 62.656-47.424 48.32 35.776a75.52 75.52 0 0 1 14.144 105.856l-4.352 5.184-4.864 4.8-5.248 4.352-382.976 289.792a75.52 75.52 0 0 1-91.136 0l-383.04-289.792a75.52 75.52 0 0 1-0.256-120.192l47.936-35.968z" fill="#000000" /></svg>