<?xml version="1.0" standalone="no"?><!DOCTYPE svg PUBLIC "-//W3C//DTD SVG 1.1//EN" "http://www.w3.org/Graphics/SVG/1.1/DTD/svg11.dtd"><svg class="icon" width="200px" height="200.00px" viewBox="0 0 1024 1024" version="1.1" xmlns="http://www.w3.org/2000/svg"><path d="M864 96a64 64 0 0 1 64 64v704a64 64 0 0 1-64 64h-704a64 64 0 0 1-64-64v-704a64 64 0 0 1 64-64h704z m-12.8 64H172.8a12.8 12.8 0 0 0-12.8 12.8v678.4c0 7.04 5.76 12.8 12.8 12.8h678.4a12.8 12.8 0 0 0 12.8-12.8V172.8a12.8 12.8 0 0 0-12.8-12.8z" fill="#000000" /><path d="M416 256v448a32 32 0 0 1-32 32H256a32 32 0 0 1-32-32V256a32 32 0 0 1 32-32h128a32 32 0 0 1 32 32z m-70.4 32h-51.2a6.4 6.4 0 0 0-6.4 6.4v371.2a6.4 6.4 0 0 0 6.4 6.4h51.2a6.4 6.4 0 0 0 6.4-6.4V294.4a6.4 6.4 0 0 0-6.4-6.4zM640 256v256a32 32 0 0 1-32 32h-128A32 32 0 0 1 448 512V256a32 32 0 0 1 32-32h128a32 32 0 0 1 32 32z m-70.4 32h-51.2a6.4 6.4 0 0 0-6.4 6.4v179.2a6.4 6.4 0 0 0 6.4 6.4h51.2a6.4 6.4 0 0 0 6.4-6.4V294.4a6.4 6.4 0 0 0-6.4-6.4z" fill="#000000" /></svg>