<?xml version="1.0" standalone="no"?><!DOCTYPE svg PUBLIC "-//W3C//DTD SVG 1.1//EN" "http://www.w3.org/Graphics/SVG/1.1/DTD/svg11.dtd"><svg class="icon" width="200px" height="200.00px" viewBox="0 0 1024 1024" version="1.1" xmlns="http://www.w3.org/2000/svg"><path d="M512 64a448 448 0 1 1 0 896A448 448 0 0 1 512 64z m0 64a384 384 0 1 0 0 768A384 384 0 0 0 512 128z" fill="#000000" /><path d="M512 64c123.712 0 224 200.576 224 448S635.712 960 512 960s-224-200.576-224-448S388.288 64 512 64z m0 64C435.712 128 352 295.36 352 512s83.712 384 160 384 160-167.36 160-384S588.288 128 512 128z" fill="#000000" /><path d="M896.256 455.232a32 32 0 1 1 40.64 49.536C826.816 595.008 684.736 640 512 640c-172.8 0-314.88-44.928-424.96-135.232a32 32 0 0 1 40.512-49.536C225.6 535.68 353.28 576 512 576c158.72 0 286.336-40.384 384.256-120.768z" fill="#000000" /></svg>