<?xml version="1.0" standalone="no"?><!DOCTYPE svg PUBLIC "-//W3C//DTD SVG 1.1//EN" "http://www.w3.org/Graphics/SVG/1.1/DTD/svg11.dtd"><svg class="icon" width="200px" height="200.00px" viewBox="0 0 1024 1024" version="1.1" xmlns="http://www.w3.org/2000/svg"><path d="M812.8 96a51.2 51.2 0 0 1 51.2 51.2V608h-70.4V179.2a12.8 12.8 0 0 0-12.8-12.8H243.2a12.8 12.8 0 0 0-12.8 12.8L230.336 608H160V147.2a51.2 51.2 0 0 1 51.2-51.2h601.6z" fill="#000000" /><path d="M332.8 544a51.2 51.2 0 0 1 51.2 51.2v64c0 7.04 5.76 12.8 12.8 12.8h230.4a12.8 12.8 0 0 0 12.8-12.8v-64a51.2 51.2 0 0 1 51.2-51.2h185.6a51.2 51.2 0 0 1 51.2 51.2v281.6a51.2 51.2 0 0 1-51.2 51.2H147.2a51.2 51.2 0 0 1-51.2-51.2V595.2A51.2 51.2 0 0 1 147.2 544h185.6z m-35.84 74.24H183.04a12.8 12.8 0 0 0-12.8 12.8v209.92c0 7.04 5.76 12.8 12.8 12.8h657.92a12.8 12.8 0 0 0 12.8-12.8V631.04a12.8 12.8 0 0 0-12.8-12.8H727.04a12.8 12.8 0 0 0-12.8 12.8v76.8a38.4 38.4 0 0 1-38.4 38.4H348.16a38.4 38.4 0 0 1-38.4-38.4v-76.8a12.8 12.8 0 0 0-12.8-12.8z" fill="#000000" /><path d="M672 325.44m-37.44 0l-245.12 0q-37.44 0-37.44-37.44l0 0q0-37.44 37.44-37.44l245.12 0q37.44 0 37.44 37.44l0 0q0 37.44-37.44 37.44Z" fill="#000000" /><path d="M672 478.08m-37.44 0l-245.12 0q-37.44 0-37.44-37.44l0 0q0-37.44 37.44-37.44l245.12 0q37.44 0 37.44 37.44l0 0q0 37.44-37.44 37.44Z" fill="#000000" /></svg>