<?xml version="1.0" standalone="no"?><!DOCTYPE svg PUBLIC "-//W3C//DTD SVG 1.1//EN" "http://www.w3.org/Graphics/SVG/1.1/DTD/svg11.dtd"><svg class="icon" width="200px" height="200.00px" viewBox="0 0 1024 1024" version="1.1" xmlns="http://www.w3.org/2000/svg"><path d="M195.008 404.224l634.176-1.024a19.2 19.2 0 0 1 19.2 19.2l0.064 458.432a19.2 19.2 0 0 1-19.2 19.2h-634.24a19.2 19.2 0 0 1-19.2-19.2V423.424a19.2 19.2 0 0 1 19.2-19.2zM848.704 328.96H175.552A74.56 74.56 0 0 0 101.12 403.328v496.576c0 40.96 33.408 74.432 74.432 74.432h673.152c41.088 0 74.368-33.344 74.432-74.432V403.328c0-41.088-33.344-74.368-74.432-74.368z" fill="#000000" /><path d="M544 49.92a229.12 229.12 0 0 1 229.12 229.12v92.032h-74.24V279.04A154.88 154.88 0 0 0 544 124.16h-64a154.88 154.88 0 0 0-154.88 154.88v92.032H250.88V279.04A229.12 229.12 0 0 1 480 49.92h64zM512.128 534.4c20.48 0 37.12 16.64 37.12 37.12v160a37.12 37.12 0 1 1-74.24 0v-160c0-20.48 16.64-37.12 37.12-37.12z" fill="#000000" /></svg>