<?xml version="1.0" standalone="no"?><!DOCTYPE svg PUBLIC "-//W3C//DTD SVG 1.1//EN" "http://www.w3.org/Graphics/SVG/1.1/DTD/svg11.dtd"><svg class="icon" width="200px" height="200.00px" viewBox="0 0 1024 1024" version="1.1" xmlns="http://www.w3.org/2000/svg"><path d="M983.316257 641.894216l-74.847441-63.972172a410.829289 410.829289 0 0 0 0-132.038563l74.847441-63.972172a36.592082 36.592082 0 0 0 10.619381-40.174525l-1.023555-3.006692a506.915492 506.915492 0 0 0-91.032401-157.499487l-2.047109-2.430943a36.720027 36.720027 0 0 0-40.110552-10.875269l-92.823622 33.073613a402.512907 402.512907 0 0 0-113.870466-65.891337L634.98778 38.124856a36.592082 36.592082 0 0 0-29.427199-29.363227l-3.198608-0.57575a516.063512 516.063512 0 0 0-181.553025 0l-3.134636 0.639722a36.592082 36.592082 0 0 0-29.427199 29.299255l-18.104125 97.557562A401.937157 401.937157 0 0 0 257.168132 201.189922l-93.591288-33.265529a36.52811 36.52811 0 0 0-40.110552 10.875269l-2.047109 2.430943A509.538351 509.538351 0 0 0 30.386782 338.66612l-1.023555 2.94272a36.720027 36.720027 0 0 0 10.619381 40.302469l75.743051 64.611893a401.937157 401.937157 0 0 0 0 130.503232l-75.743051 64.611893a36.592082 36.592082 0 0 0-10.619381 40.174524l1.023555 3.006692c20.663012 57.574955 51.305682 110.671858 91.032401 157.499488l2.047109 2.430943c9.851715 11.514991 25.780785 15.865099 40.110552 10.875269l93.591288-33.265529a399.186354 399.186354 0 0 0 113.1028 65.571476l18.040153 97.557562a36.592082 36.592082 0 0 0 29.427199 29.363227l3.134636 0.57575c60.005897 10.747325 121.547127 10.747325 181.616997 0l3.070664-0.639722a36.592082 36.592082 0 0 0 29.427199-29.299255l17.976181-97.109757a399.826076 399.826076 0 0 0 113.870466-65.827365l92.887594 33.009641c14.329767 5.117774 30.32281 0.767666 40.110552-10.875269l2.047109-2.366971a509.538351 509.538351 0 0 0 91.032401-157.499488l1.023555-3.006692a36.464138 36.464138 0 0 0-10.619381-39.982607z m-155.900183-182.512607a323.315358 323.315358 0 0 1 0 105.298195l-7.548716 45.804076 85.338877 72.992248a422.728113 422.728113 0 0 1-48.618851 84.123406l-106.065861-37.615637-35.824416 29.427199a319.221139 319.221139 0 0 1-90.648568 52.393209l-43.501077 16.312904-20.471095 110.799802a431.236412 431.236412 0 0 1-97.109757 0l-20.471096-111.055691-43.117244-16.50482a319.604972 319.604972 0 0 1-89.880901-52.201293l-35.888389-29.619115-106.705583 37.935498a431.684217 431.684217 0 0 1-48.618851-84.059434l86.170516-73.695943-7.420772-45.67613A328.880937 328.880937 0 0 1 192.812127 512.030707c0-17.464403 1.407388-34.928806 4.222163-52.009376l7.420772-45.676131-86.234488-73.695942c12.922379-29.811032 29.235283-57.894816 48.618851-84.059435l106.769555 37.935498 35.824416-29.555143a319.604972 319.604972 0 0 1 89.944874-52.265265l43.309161-16.312904 20.471095-111.05569a431.236412 431.236412 0 0 1 97.045785 0l20.471095 110.799802 43.501077 16.376876c32.817724 12.346629 63.33245 29.938977 90.584596 52.329237l35.824416 29.427199 106.065862-37.551665c19.44754 26.164618 35.6325 54.376346 48.61885 84.059434l-85.274905 72.992248 7.420772 45.612159zM511.777377 299.579123a201.064537 201.064537 0 1 0 0 402.065102A201.064537 201.064537 0 0 0 511.777377 299.643095z m90.456651 291.521188A127.496539 127.496539 0 0 1 511.777377 628.46006a127.496539 127.496539 0 0 1-90.456652-37.423721A127.496539 127.496539 0 0 1 383.833033 500.515716c0-34.16114 13.370184-66.211198 37.487692-90.456652 24.181481-24.181481 56.295511-37.487693 90.456652-37.487693 34.16114 0 66.27517 13.306212 90.456651 37.487693 24.053537 23.989565 37.551665 56.5514 37.487693 90.456652 0 34.16114-13.370184 66.27517-37.487693 90.520623z" fill="#000000" /></svg>